<mxfile host="app.diagrams.net" agent="Mozilla/5.0 (Windows NT 10.0; Win64; x64) AppleWebKit/537.36 (KHTML, like Gecko) Chrome/129.0.0.0 Safari/537.36" version="24.7.17">
  <diagram id="Ht1M8jgEwFfnCIfOTk4-" name="Page-1">
    <mxGraphModel dx="3609" dy="2128" grid="1" gridSize="10" guides="1" tooltips="1" connect="1" arrows="1" fold="1" page="1" pageScale="1" pageWidth="1169" pageHeight="827" math="0" shadow="0">
      <root>
        <mxCell id="0" />
        <mxCell id="1" parent="0" />
        <mxCell id="_Apwnt3_-4KDrW0ZBKdp-31" value="" style="rounded=0;whiteSpace=wrap;html=1;fillColor=none;" vertex="1" parent="1">
          <mxGeometry x="10" y="-30" width="1280" height="860" as="geometry" />
        </mxCell>
        <mxCell id="_Apwnt3_-4KDrW0ZBKdp-57" value="" style="rounded=0;whiteSpace=wrap;html=1;fillColor=none;" vertex="1" parent="1">
          <mxGeometry x="70" y="496.44" width="220" height="203.56" as="geometry" />
        </mxCell>
        <mxCell id="_Apwnt3_-4KDrW0ZBKdp-13" value="" style="rounded=0;whiteSpace=wrap;html=1;fillColor=none;" vertex="1" parent="1">
          <mxGeometry x="380" y="360" width="870" height="440" as="geometry" />
        </mxCell>
        <mxCell id="_Apwnt3_-4KDrW0ZBKdp-25" value="" style="rounded=0;whiteSpace=wrap;html=1;fillColor=none;" vertex="1" parent="1">
          <mxGeometry x="460" y="440" width="770" height="330" as="geometry" />
        </mxCell>
        <mxCell id="_Apwnt3_-4KDrW0ZBKdp-38" value="" style="rounded=0;whiteSpace=wrap;html=1;fillColor=none;" vertex="1" parent="1">
          <mxGeometry x="781.75" y="506.25" width="118.75" height="123.75" as="geometry" />
        </mxCell>
        <mxCell id="_Apwnt3_-4KDrW0ZBKdp-33" value="" style="rounded=0;whiteSpace=wrap;html=1;fillColor=none;" vertex="1" parent="1">
          <mxGeometry x="840" y="20.759999999999998" width="230.5" height="234.25" as="geometry" />
        </mxCell>
        <mxCell id="_Apwnt3_-4KDrW0ZBKdp-8" value="" style="rounded=0;whiteSpace=wrap;html=1;fillColor=none;" vertex="1" parent="1">
          <mxGeometry x="520" y="34.88" width="248" height="230" as="geometry" />
        </mxCell>
        <mxCell id="_Apwnt3_-4KDrW0ZBKdp-5" value="elink-doc" style="shape=image;verticalLabelPosition=bottom;labelBackgroundColor=default;verticalAlign=top;aspect=fixed;imageAspect=0;image=https://taetaetae.github.io/images/spring-boot-eclipse/spring-boot-logo.jpg;" vertex="1" parent="1">
          <mxGeometry x="135" y="550" width="90" height="90" as="geometry" />
        </mxCell>
        <mxCell id="UEzPUAAOIrF-is8g5C7q-113" value="Lambda" style="outlineConnect=0;fontColor=#232F3E;gradientColor=#F78E04;gradientDirection=north;fillColor=#D05C17;strokeColor=#ffffff;dashed=0;verticalLabelPosition=bottom;verticalAlign=top;align=center;html=1;fontSize=12;fontStyle=0;aspect=fixed;shape=mxgraph.aws4.resourceIcon;resIcon=mxgraph.aws4.lambda;labelBackgroundColor=#ffffff;spacingTop=3;" parent="1" vertex="1">
          <mxGeometry x="30.000000000000043" y="450" width="90" height="90" as="geometry" />
        </mxCell>
        <mxCell id="UEzPUAAOIrF-is8g5C7q-114" value="Amazon API&lt;br&gt;Gateway&lt;br&gt;" style="outlineConnect=0;fontColor=#232F3E;gradientColor=#945DF2;gradientDirection=north;fillColor=#5A30B5;strokeColor=#ffffff;dashed=0;verticalLabelPosition=bottom;verticalAlign=top;align=center;html=1;fontSize=12;fontStyle=0;aspect=fixed;shape=mxgraph.aws4.resourceIcon;resIcon=mxgraph.aws4.api_gateway;labelBackgroundColor=#ffffff;" parent="1" vertex="1">
          <mxGeometry x="-162.12" y="454.94000000000005" width="80.12" height="80.12" as="geometry" />
        </mxCell>
        <mxCell id="UEzPUAAOIrF-is8g5C7q-122" value="IAM Roles" style="outlineConnect=0;fontColor=#232F3E;gradientColor=none;fillColor=#C7131F;strokeColor=none;dashed=0;verticalLabelPosition=bottom;verticalAlign=top;align=center;html=1;fontSize=12;fontStyle=0;aspect=fixed;pointerEvents=1;shape=mxgraph.aws4.role;labelBackgroundColor=#ffffff;" parent="1" vertex="1">
          <mxGeometry x="180" y="160" width="99.09" height="55.9" as="geometry" />
        </mxCell>
        <mxCell id="_Apwnt3_-4KDrW0ZBKdp-1" value="Gitlab CE" style="shape=image;html=1;verticalAlign=top;verticalLabelPosition=bottom;labelBackgroundColor=#ffffff;imageAspect=0;aspect=fixed;image=https://cdn4.iconfinder.com/data/icons/socialcones/508/Gitlab-128.png;imageBorder=default;" vertex="1" parent="1">
          <mxGeometry x="542" y="98.88" width="78" height="78" as="geometry" />
        </mxCell>
        <mxCell id="_Apwnt3_-4KDrW0ZBKdp-3" value="Amazon EC2" style="sketch=0;outlineConnect=0;fontColor=#232F3E;gradientColor=none;strokeColor=#ffffff;fillColor=#232F3E;dashed=0;verticalLabelPosition=middle;verticalAlign=bottom;align=center;html=1;whiteSpace=wrap;fontSize=10;fontStyle=1;spacing=3;shape=mxgraph.aws4.productIcon;prIcon=mxgraph.aws4.ec2;" vertex="1" parent="1">
          <mxGeometry x="490" y="-15.12" width="80" height="100" as="geometry" />
        </mxCell>
        <mxCell id="_Apwnt3_-4KDrW0ZBKdp-6" value="Amazon EC2" style="sketch=0;outlineConnect=0;fontColor=#232F3E;gradientColor=none;strokeColor=#ffffff;fillColor=#232F3E;dashed=0;verticalLabelPosition=middle;verticalAlign=bottom;align=center;html=1;whiteSpace=wrap;fontSize=10;fontStyle=1;spacing=3;shape=mxgraph.aws4.productIcon;prIcon=mxgraph.aws4.ec2;" vertex="1" parent="1">
          <mxGeometry x="340" y="310" width="80" height="100" as="geometry" />
        </mxCell>
        <mxCell id="_Apwnt3_-4KDrW0ZBKdp-9" value="Developer" style="sketch=0;outlineConnect=0;fontColor=#232F3E;gradientColor=none;fillColor=#232F3D;strokeColor=none;dashed=0;verticalLabelPosition=bottom;verticalAlign=top;align=center;html=1;fontSize=12;fontStyle=0;aspect=fixed;pointerEvents=1;shape=mxgraph.aws4.user;" vertex="1" parent="1">
          <mxGeometry x="-480" y="387.44" width="90" height="90" as="geometry" />
        </mxCell>
        <mxCell id="_Apwnt3_-4KDrW0ZBKdp-15" value="Terraform" style="shape=image;verticalLabelPosition=bottom;labelBackgroundColor=default;verticalAlign=top;aspect=fixed;imageAspect=0;image=https://www.svgrepo.com/show/376353/terraform.svg;imageBorder=default;" vertex="1" parent="1">
          <mxGeometry x="-350" y="253.44" width="107.5" height="107.5" as="geometry" />
        </mxCell>
        <mxCell id="_Apwnt3_-4KDrW0ZBKdp-16" value="eLink" style="image;aspect=fixed;html=1;points=[];align=center;fontSize=12;image=img/lib/azure2/preview/Private_Link_Hub.svg;" vertex="1" parent="1">
          <mxGeometry x="815" y="530.88" width="60" height="69" as="geometry" />
        </mxCell>
        <mxCell id="_Apwnt3_-4KDrW0ZBKdp-18" value="FEP Target Mock" style="shape=image;verticalLabelPosition=bottom;labelBackgroundColor=default;verticalAlign=top;aspect=fixed;imageAspect=0;image=https://taetaetae.github.io/images/spring-boot-eclipse/spring-boot-logo.jpg;" vertex="1" parent="1">
          <mxGeometry x="1027" y="530.38" width="75.5" height="75.5" as="geometry" />
        </mxCell>
        <mxCell id="_Apwnt3_-4KDrW0ZBKdp-21" value="FEP Source Mock" style="shape=image;verticalLabelPosition=bottom;labelBackgroundColor=default;verticalAlign=top;aspect=fixed;imageAspect=0;image=https://taetaetae.github.io/images/spring-boot-eclipse/spring-boot-logo.jpg;" vertex="1" parent="1">
          <mxGeometry x="567" y="530.88" width="75" height="75" as="geometry" />
        </mxCell>
        <mxCell id="_Apwnt3_-4KDrW0ZBKdp-24" value="Docker" style="shape=image;html=1;verticalAlign=top;verticalLabelPosition=bottom;labelBackgroundColor=#ffffff;imageAspect=0;aspect=fixed;image=https://cdn1.iconfinder.com/data/icons/unicons-line-vol-3/24/docker-128.png" vertex="1" parent="1">
          <mxGeometry x="410" y="368.44" width="128" height="128" as="geometry" />
        </mxCell>
        <mxCell id="_Apwnt3_-4KDrW0ZBKdp-27" value="runner" style="shape=image;verticalLabelPosition=bottom;labelBackgroundColor=default;verticalAlign=top;aspect=fixed;imageAspect=0;image=https://d3g9o9u8re44ak.cloudfront.net/logo/106893ee-a3f1-4d64-8aad-3598cd442c18/97c84bc1-190b-44e3-aa5d-0dfc8de149d3.png;" vertex="1" parent="1">
          <mxGeometry x="660" y="96.88" width="82" height="82" as="geometry" />
        </mxCell>
        <mxCell id="_Apwnt3_-4KDrW0ZBKdp-30" value="Amazon VPC" style="sketch=0;outlineConnect=0;fontColor=#232F3E;gradientColor=none;strokeColor=#ffffff;fillColor=#232F3E;dashed=0;verticalLabelPosition=middle;verticalAlign=bottom;align=center;html=1;whiteSpace=wrap;fontSize=10;fontStyle=1;spacing=3;shape=mxgraph.aws4.productIcon;prIcon=mxgraph.aws4.vpc;" vertex="1" parent="1">
          <mxGeometry x="-30" y="-80" width="80" height="100" as="geometry" />
        </mxCell>
        <mxCell id="_Apwnt3_-4KDrW0ZBKdp-32" value="Amazon EC2" style="sketch=0;outlineConnect=0;fontColor=#232F3E;gradientColor=none;strokeColor=#ffffff;fillColor=#232F3E;dashed=0;verticalLabelPosition=middle;verticalAlign=bottom;align=center;html=1;whiteSpace=wrap;fontSize=10;fontStyle=1;spacing=3;shape=mxgraph.aws4.productIcon;prIcon=mxgraph.aws4.ec2;" vertex="1" parent="1">
          <mxGeometry x="790" y="-15.120000000000001" width="80" height="100" as="geometry" />
        </mxCell>
        <mxCell id="_Apwnt3_-4KDrW0ZBKdp-35" value="Jenkins" style="shape=image;verticalLabelPosition=bottom;labelBackgroundColor=default;verticalAlign=top;aspect=fixed;imageAspect=0;image=https://wiki.jenkins-ci.org/JENKINS/attachments/2916393/57409617.png;" vertex="1" parent="1">
          <mxGeometry x="901.75" y="94.88" width="86" height="86" as="geometry" />
        </mxCell>
        <mxCell id="_Apwnt3_-4KDrW0ZBKdp-37" value="" style="shape=image;verticalLabelPosition=bottom;labelBackgroundColor=default;verticalAlign=top;aspect=fixed;imageAspect=0;image=https://upload.wikimedia.org/wikipedia/commons/f/fe/Apache_Tomcat_logo.svg;" vertex="1" parent="1">
          <mxGeometry x="731.75" y="458.05" width="115" height="81.95" as="geometry" />
        </mxCell>
        <mxCell id="_Apwnt3_-4KDrW0ZBKdp-43" value="" style="endArrow=classic;html=1;rounded=0;entryX=0;entryY=0.5;entryDx=0;entryDy=0;" edge="1" parent="1" source="_Apwnt3_-4KDrW0ZBKdp-27" target="_Apwnt3_-4KDrW0ZBKdp-35">
          <mxGeometry width="50" height="50" relative="1" as="geometry">
            <mxPoint x="260" y="390" as="sourcePoint" />
            <mxPoint x="310" y="340" as="targetPoint" />
          </mxGeometry>
        </mxCell>
        <mxCell id="_Apwnt3_-4KDrW0ZBKdp-44" value="" style="endArrow=classic;html=1;rounded=0;entryX=-0.049;entryY=0.587;entryDx=0;entryDy=0;exitX=1.038;exitY=0.604;exitDx=0;exitDy=0;exitPerimeter=0;entryPerimeter=0;" edge="1" parent="1" source="_Apwnt3_-4KDrW0ZBKdp-1" target="_Apwnt3_-4KDrW0ZBKdp-27">
          <mxGeometry width="50" height="50" relative="1" as="geometry">
            <mxPoint x="752" y="148" as="sourcePoint" />
            <mxPoint x="912" y="148" as="targetPoint" />
          </mxGeometry>
        </mxCell>
        <mxCell id="_Apwnt3_-4KDrW0ZBKdp-45" value="" style="endArrow=classic;html=1;rounded=0;entryX=0.568;entryY=-0.004;entryDx=0;entryDy=0;entryPerimeter=0;" edge="1" parent="1" source="_Apwnt3_-4KDrW0ZBKdp-35" target="_Apwnt3_-4KDrW0ZBKdp-25">
          <mxGeometry width="50" height="50" relative="1" as="geometry">
            <mxPoint x="752" y="148" as="sourcePoint" />
            <mxPoint x="912" y="148" as="targetPoint" />
          </mxGeometry>
        </mxCell>
        <mxCell id="_Apwnt3_-4KDrW0ZBKdp-47" value="" style="endArrow=none;dashed=1;html=1;rounded=0;exitX=1.004;exitY=0.464;exitDx=0;exitDy=0;exitPerimeter=0;" edge="1" parent="1" source="_Apwnt3_-4KDrW0ZBKdp-16" target="_Apwnt3_-4KDrW0ZBKdp-41">
          <mxGeometry width="50" height="50" relative="1" as="geometry">
            <mxPoint x="1290" y="313.22" as="sourcePoint" />
            <mxPoint x="1040" y="329.24564102564113" as="targetPoint" />
          </mxGeometry>
        </mxCell>
        <mxCell id="_Apwnt3_-4KDrW0ZBKdp-41" value="RDS(Postgres)" style="outlineConnect=0;dashed=0;verticalLabelPosition=bottom;verticalAlign=top;align=center;html=1;shape=mxgraph.aws3.rds;fillColor=#2E73B8;gradientColor=none;" vertex="1" parent="1">
          <mxGeometry x="1150" y="109" width="72" height="81" as="geometry" />
        </mxCell>
        <mxCell id="_Apwnt3_-4KDrW0ZBKdp-49" value="Log" style="shape=image;verticalLabelPosition=bottom;labelBackgroundColor=default;verticalAlign=top;aspect=fixed;imageAspect=0;image=https://miro.medium.com/v2/resize:fit:1400/1*vZDu4Bwj2GxQh8t1IjDq4w.png;" vertex="1" parent="1">
          <mxGeometry x="940.06" y="652.0000000000001" width="155.5" height="55.07" as="geometry" />
        </mxCell>
        <mxCell id="_Apwnt3_-4KDrW0ZBKdp-51" value="Metric" style="shape=image;verticalLabelPosition=bottom;labelBackgroundColor=default;verticalAlign=top;aspect=fixed;imageAspect=0;image=https://cdn.icon-icons.com/icons2/2699/PNG/512/grafana_logo_icon_171048.png;" vertex="1" parent="1">
          <mxGeometry x="1108.43" y="630" width="81" height="81" as="geometry" />
        </mxCell>
        <mxCell id="_Apwnt3_-4KDrW0ZBKdp-55" value="" style="endArrow=classic;html=1;rounded=0;exitX=1;exitY=0.5;exitDx=0;exitDy=0;entryX=0;entryY=0.5;entryDx=0;entryDy=0;" edge="1" parent="1" source="_Apwnt3_-4KDrW0ZBKdp-21" target="_Apwnt3_-4KDrW0ZBKdp-38">
          <mxGeometry width="50" height="50" relative="1" as="geometry">
            <mxPoint x="757" y="490" as="sourcePoint" />
            <mxPoint x="807" y="440" as="targetPoint" />
          </mxGeometry>
        </mxCell>
        <mxCell id="_Apwnt3_-4KDrW0ZBKdp-56" value="" style="endArrow=classic;html=1;rounded=0;exitX=1;exitY=0.5;exitDx=0;exitDy=0;entryX=0;entryY=0.5;entryDx=0;entryDy=0;" edge="1" parent="1" source="_Apwnt3_-4KDrW0ZBKdp-38" target="_Apwnt3_-4KDrW0ZBKdp-18">
          <mxGeometry width="50" height="50" relative="1" as="geometry">
            <mxPoint x="642" y="575" as="sourcePoint" />
            <mxPoint x="792" y="578" as="targetPoint" />
          </mxGeometry>
        </mxCell>
        <mxCell id="_Apwnt3_-4KDrW0ZBKdp-58" value="" style="endArrow=classic;html=1;rounded=0;exitX=1;exitY=0.499;exitDx=0;exitDy=0;exitPerimeter=0;" edge="1" parent="1" source="UEzPUAAOIrF-is8g5C7q-114" target="UEzPUAAOIrF-is8g5C7q-113">
          <mxGeometry width="50" height="50" relative="1" as="geometry">
            <mxPoint x="-82" y="579.5" as="sourcePoint" />
            <mxPoint x="6" y="579.5" as="targetPoint" />
          </mxGeometry>
        </mxCell>
        <mxCell id="_Apwnt3_-4KDrW0ZBKdp-59" value="" style="endArrow=classic;html=1;rounded=0;exitX=1;exitY=0.5;exitDx=0;exitDy=0;" edge="1" parent="1" source="_Apwnt3_-4KDrW0ZBKdp-15">
          <mxGeometry width="50" height="50" relative="1" as="geometry">
            <mxPoint x="-210" y="418.44" as="sourcePoint" />
            <mxPoint x="230" y="240" as="targetPoint" />
            <Array as="points">
              <mxPoint x="230" y="310" />
            </Array>
          </mxGeometry>
        </mxCell>
        <mxCell id="_Apwnt3_-4KDrW0ZBKdp-60" value="" style="endArrow=classic;html=1;rounded=0;exitX=0;exitY=0.5;exitDx=0;exitDy=0;" edge="1" parent="1" source="_Apwnt3_-4KDrW0ZBKdp-1">
          <mxGeometry width="50" height="50" relative="1" as="geometry">
            <mxPoint x="-222" y="322" as="sourcePoint" />
            <mxPoint x="-410" y="250" as="targetPoint" />
            <Array as="points">
              <mxPoint x="-410" y="130" />
            </Array>
          </mxGeometry>
        </mxCell>
        <mxCell id="_Apwnt3_-4KDrW0ZBKdp-67" value="&lt;font style=&quot;font-size: 15px;&quot;&gt;WebHook, Metric&lt;/font&gt;" style="edgeLabel;html=1;align=center;verticalAlign=middle;resizable=0;points=[];" vertex="1" connectable="0" parent="_Apwnt3_-4KDrW0ZBKdp-60">
          <mxGeometry x="0.3127" y="-2" relative="1" as="geometry">
            <mxPoint as="offset" />
          </mxGeometry>
        </mxCell>
        <mxCell id="_Apwnt3_-4KDrW0ZBKdp-63" value="" style="endArrow=classic;html=1;rounded=0;" edge="1" parent="1" source="UEzPUAAOIrF-is8g5C7q-122" target="_Apwnt3_-4KDrW0ZBKdp-6">
          <mxGeometry width="50" height="50" relative="1" as="geometry">
            <mxPoint x="350" y="230.88" as="sourcePoint" />
            <mxPoint x="400" y="180.88" as="targetPoint" />
            <Array as="points">
              <mxPoint x="380" y="188" />
            </Array>
          </mxGeometry>
        </mxCell>
        <mxCell id="_Apwnt3_-4KDrW0ZBKdp-64" value="" style="endArrow=classic;html=1;rounded=0;" edge="1" parent="1">
          <mxGeometry width="50" height="50" relative="1" as="geometry">
            <mxPoint x="279.09" y="178.88" as="sourcePoint" />
            <mxPoint x="490" y="40" as="targetPoint" />
            <Array as="points">
              <mxPoint x="390" y="40" />
            </Array>
          </mxGeometry>
        </mxCell>
        <mxCell id="_Apwnt3_-4KDrW0ZBKdp-66" value="" style="endArrow=classic;html=1;rounded=0;exitX=1.02;exitY=0.358;exitDx=0;exitDy=0;exitPerimeter=0;" edge="1" parent="1" source="UEzPUAAOIrF-is8g5C7q-122" target="_Apwnt3_-4KDrW0ZBKdp-32">
          <mxGeometry width="50" height="50" relative="1" as="geometry">
            <mxPoint x="359.09" y="338.88" as="sourcePoint" />
            <mxPoint x="570" y="200" as="targetPoint" />
            <Array as="points">
              <mxPoint x="510" y="180" />
              <mxPoint x="510" y="330" />
              <mxPoint x="830" y="330" />
            </Array>
          </mxGeometry>
        </mxCell>
        <mxCell id="_Apwnt3_-4KDrW0ZBKdp-69" value="Discord" style="shape=image;verticalLabelPosition=bottom;labelBackgroundColor=default;verticalAlign=top;aspect=fixed;imageAspect=0;image=https://cdn1.iconfinder.com/data/icons/unicons-line-vol-3/24/discord-512.png;imageBorder=default;" vertex="1" parent="1">
          <mxGeometry x="-460" y="253.44" width="106.56" height="106.56" as="geometry" />
        </mxCell>
      </root>
    </mxGraphModel>
  </diagram>
</mxfile>
